<?xml version="1.0" standalone="no"?>
<!DOCTYPE svg PUBLIC "-//W3C//DTD SVG 20010904//EN"
 "http://www.w3.org/TR/2001/REC-SVG-20010904/DTD/svg10.dtd">
<svg version="1.0" xmlns="http://www.w3.org/2000/svg"
 width="512.000000pt" height="512.000000pt" viewBox="0 0 512.000000 512.000000"
 preserveAspectRatio="xMidYMid meet">
<metadata>
Created by potrace 1.11, written by Peter Selinger 2001-2013
</metadata>
<g transform="translate(0.000000,512.000000) scale(0.100000,-0.100000)"
fill="#000000" stroke="none">
<path d="M2106 4923 c1 -21 5 -83 9 -138 3 -55 8 -130 10 -167 3 -46 1 -67 -8
-70 -7 -2 -434 -3 -950 -3 l-938 1 5 -55 c26 -281 26 -448 0 -701 l-6 -55 591
0 c325 0 591 -2 591 -4 0 -5 -73 -102 -92 -122 -7 -8 -38 -41 -68 -74 -158
-171 -365 -330 -615 -473 -62 -35 -303 -154 -365 -180 -30 -13 -67 -29 -82
-35 l-28 -12 76 -90 c42 -49 86 -101 98 -115 47 -57 254 -331 325 -432 l33
-46 56 25 c449 198 919 536 1420 1022 35 33 67 61 71 61 4 0 27 13 49 30 37
26 40 32 31 52 -12 27 -63 65 -219 162 -134 83 -330 216 -330 225 0 3 301 6
670 6 368 0 670 -2 670 -4 0 -8 -84 -117 -174 -225 l-90 -108 65 -62 c35 -34
125 -115 199 -180 74 -65 149 -131 165 -145 71 -63 351 -286 480 -383 298
-223 675 -473 675 -447 0 5 16 35 35 65 19 30 35 57 35 60 0 13 238 367 322
478 49 65 88 119 86 120 -2 2 -64 27 -138 56 -149 59 -342 153 -465 226 -68
41 -247 159 -280 186 -5 4 -48 38 -95 74 -75 59 -162 134 -282 243 -20 19 -35
37 -34 40 2 3 293 6 646 6 l642 0 -6 65 c-27 251 -27 441 0 691 l5 55 -953 -1
c-524 0 -960 1 -969 3 -29 6 -14 171 19 208 9 11 32 38 51 62 32 41 32 43 17
67 -9 14 -22 25 -29 26 -6 1 -91 2 -187 4 -206 3 -495 14 -530 19 -14 3 -56 7
-95 11 -38 3 -82 8 -96 11 -25 5 -26 3 -23 -33z"/>
<path d="M3042 2645 c-68 -165 -181 -356 -293 -490 -66 -79 -233 -245 -247
-245 -13 0 -53 27 -117 80 -16 13 -78 72 -136 130 -145 146 -251 292 -329 453
-18 37 -34 67 -37 67 -3 0 -56 -33 -117 -74 -182 -122 -344 -205 -516 -268
-49 -18 -90 -37 -90 -41 0 -31 291 -456 395 -577 55 -62 109 -123 162 -179 49
-52 51 -56 31 -64 -11 -4 -35 -14 -52 -21 -17 -8 -85 -33 -151 -56 -66 -23
-127 -44 -135 -47 -19 -8 -8 -4 -187 -57 -142 -42 -435 -107 -548 -120 -99
-13 -130 -17 -155 -21 -14 -2 -70 -7 -125 -11 -55 -4 -113 -8 -130 -9 -16 -1
-52 -3 -78 -4 l-48 -1 64 -82 c150 -194 287 -425 421 -709 l17 -37 77 20 c42
11 84 21 92 23 54 11 365 95 520 141 438 131 802 271 1083 417 l97 50 153 -76
c327 -163 622 -279 1002 -392 240 -72 588 -157 775 -191 14 -3 31 -7 37 -9 8
-3 18 17 28 53 40 143 154 434 189 482 6 8 22 37 36 64 14 27 64 108 112 180
47 72 85 132 84 133 -3 4 -65 10 -161 18 -44 3 -87 8 -95 10 -8 2 -42 6 -75
10 -33 3 -98 12 -145 20 -47 8 -101 16 -120 19 -28 4 -168 31 -270 51 -8 2
-33 8 -55 14 -22 5 -53 12 -70 15 -133 23 -665 191 -665 210 0 6 20 31 44 56
114 119 312 407 422 615 30 57 65 110 77 118 52 35 69 58 62 86 -4 14 -12 29
-18 33 -13 8 -20 11 -237 89 -147 52 -336 132 -463 194 -39 19 -71 35 -72 35
0 0 -20 -47 -43 -105z"/>
</g>
</svg>
