<?xml version="1.0" standalone="no"?>
<!DOCTYPE svg PUBLIC "-//W3C//DTD SVG 20010904//EN"
 "http://www.w3.org/TR/2001/REC-SVG-20010904/DTD/svg10.dtd">
<svg version="1.0" xmlns="http://www.w3.org/2000/svg"
 width="866.000000pt" height="866.000000pt" viewBox="0 0 866.000000 866.000000"
 preserveAspectRatio="xMidYMid meet">
<metadata>
Created by potrace 1.11, written by Peter Selinger 2001-2013
</metadata>
<g transform="translate(0.000000,866.000000) scale(0.100000,-0.100000)"
fill="#000000" stroke="none">
<path d="M6897 8654 c-1 -1 -65 -5 -142 -9 -77 -3 -169 -8 -205 -10 -36 -2
-117 -6 -180 -9 -63 -3 -146 -8 -185 -11 -98 -6 -276 -15 -392 -20 -54 -3
-138 -7 -188 -10 -105 -6 -223 -12 -385 -20 -63 -3 -151 -7 -195 -10 -44 -3
-127 -8 -185 -10 -58 -3 -157 -8 -220 -12 -63 -3 -148 -7 -187 -7 -40 -1 -73
-3 -73 -6 0 -3 -35 -6 -78 -6 -71 -2 -218 -9 -367 -19 -33 -2 -125 -6 -205
-10 -145 -6 -174 -8 -390 -20 -63 -3 -153 -8 -200 -10 -47 -3 -125 -7 -175
-10 -49 -3 -137 -8 -195 -10 -58 -3 -141 -7 -185 -10 -44 -2 -132 -7 -195 -10
-63 -3 -146 -8 -185 -10 -38 -2 -128 -7 -200 -10 -71 -3 -157 -7 -190 -10 -33
-2 -114 -7 -180 -10 -163 -8 -186 -12 -263 -47 -54 -24 -165 -135 -167 -167
-1 -3 -6 -15 -12 -26 -32 -58 -48 -191 -32 -272 11 -56 41 -122 75 -165 27
-34 109 -86 157 -99 40 -11 173 -13 262 -4 28 2 109 7 180 10 72 4 159 8 195
10 36 2 119 6 185 9 66 3 156 8 200 11 134 8 285 16 380 20 50 3 131 7 180 10
226 13 287 16 395 21 63 3 141 6 172 7 32 1 58 5 58 9 0 4 11 3 24 -2 13 -5
26 -6 29 -4 5 5 31 7 267 19 110 5 182 9 390 20 52 3 145 8 205 10 61 3 142 8
180 10 39 3 124 7 190 10 66 4 149 8 185 10 36 2 115 6 175 10 231 11 312 15
385 20 41 2 134 7 205 10 72 4 153 8 180 10 47 3 211 12 390 20 44 3 127 7
185 10 106 6 191 11 375 20 55 3 116 8 135 11 89 15 177 82 238 182 18 29 29
52 26 52 -4 0 -2 6 3 13 11 13 24 55 30 97 8 53 3 205 -7 205 -1 0 -3 8 -5 18
-6 31 -52 101 -86 132 -63 57 -122 73 -258 72 -67 -1 -123 -2 -124 -3z"/>
<path d="M7958 7434 c-2 -1 -66 -5 -143 -9 -77 -4 -169 -8 -205 -10 -36 -2
-114 -6 -173 -9 -151 -7 -327 -17 -422 -22 -44 -2 -119 -6 -167 -8 -88 -4
-223 -12 -373 -21 -44 -3 -134 -8 -200 -11 -66 -2 -147 -6 -180 -9 -33 -2
-123 -6 -200 -10 -77 -3 -167 -8 -200 -10 -33 -2 -109 -7 -170 -10 -60 -3
-144 -7 -185 -10 -41 -2 -127 -6 -190 -9 -63 -3 -151 -8 -195 -11 -83 -5 -243
-13 -400 -20 -49 -2 -126 -6 -170 -9 -44 -3 -136 -8 -205 -11 -69 -4 -163 -8
-210 -11 -47 -3 -119 -6 -160 -8 -188 -10 -331 -17 -395 -21 -39 -2 -125 -7
-190 -10 -66 -4 -145 -8 -175 -10 -30 -2 -113 -6 -185 -9 -71 -4 -164 -8 -205
-11 -134 -7 -303 -16 -380 -20 -83 -4 -256 -13 -395 -21 -49 -3 -133 -7 -185
-10 -52 -2 -129 -6 -170 -9 -41 -2 -127 -6 -190 -9 -63 -4 -155 -8 -205 -11
-49 -3 -139 -8 -200 -10 -287 -13 -357 -19 -417 -38 -114 -36 -210 -143 -249
-277 -17 -61 -19 -193 -3 -245 33 -112 109 -195 199 -220 17 -4 37 -10 45 -12
16 -5 163 -4 250 1 30 2 116 7 190 11 74 4 164 9 200 11 36 2 112 6 170 8 58
3 143 7 190 10 123 7 292 16 390 21 103 5 254 13 375 20 50 3 133 7 185 10 52
2 142 7 200 10 58 3 146 8 195 10 50 3 137 7 195 10 58 3 143 8 190 10 80 5
139 8 370 19 52 3 138 7 190 10 52 3 145 8 205 11 61 3 148 8 195 10 47 3 128
7 180 10 52 2 136 6 185 9 276 16 457 25 575 31 84 3 277 14 390 21 41 2 127
7 190 10 63 3 144 7 180 9 241 12 308 16 415 22 66 3 155 7 197 7 43 1 78 3
78 6 0 3 26 5 58 6 79 1 334 13 407 19 33 3 114 8 180 10 66 3 154 8 195 10
41 2 125 7 185 10 61 3 148 8 195 10 47 3 126 7 175 10 123 6 162 13 215 38
59 29 160 130 160 160 0 8 6 20 14 26 7 6 17 26 21 44 4 17 9 39 11 47 18 68
12 206 -10 265 -2 6 -7 20 -11 33 -4 12 -11 22 -16 22 -5 0 -9 5 -9 10 0 25
-98 111 -130 115 -3 0 -12 5 -20 10 -13 8 -245 17 -252 9z"/>
<path d="M6818 6054 c-2 -1 -61 -5 -133 -8 -71 -4 -175 -9 -230 -12 -55 -3
-136 -7 -180 -9 -124 -6 -313 -15 -390 -20 -38 -2 -128 -7 -200 -11 -71 -3
-152 -8 -180 -9 -27 -2 -106 -6 -175 -9 -69 -4 -156 -8 -193 -11 -38 -3 -128
-8 -200 -11 -209 -9 -233 -10 -245 -18 -7 -4 -12 -2 -12 4 0 6 -4 9 -9 6 -5
-3 -55 -8 -112 -11 -57 -3 -142 -7 -189 -10 -160 -9 -295 -16 -375 -20 -44 -2
-127 -6 -185 -9 -58 -4 -148 -9 -200 -11 -52 -3 -105 -7 -117 -9 -13 -3 -23 0
-23 5 0 6 -6 7 -12 2 -7 -4 -26 -8 -43 -9 -38 -2 -290 -15 -370 -19 -33 -2
-116 -6 -185 -9 -69 -4 -160 -8 -203 -11 -42 -3 -123 -7 -180 -10 -56 -2 -140
-7 -187 -10 -47 -2 -137 -7 -200 -10 -63 -4 -146 -8 -185 -10 -38 -2 -126 -7
-195 -10 -164 -7 -244 -16 -256 -28 -4 -4 -13 -7 -21 -7 -21 0 -95 -51 -135
-94 -38 -41 -86 -126 -93 -167 -3 -13 -8 -45 -13 -70 -5 -25 -8 -54 -6 -65 1
-10 5 -40 7 -65 13 -115 107 -231 213 -265 70 -22 130 -22 494 1 30 1 116 6
190 10 149 7 248 12 385 20 230 12 307 16 395 20 52 3 140 7 195 10 55 3 134
7 175 10 41 2 125 7 185 10 117 6 231 12 380 19 239 12 309 17 313 21 3 2 13
0 23 -6 11 -5 19 -6 19 -2 0 4 19 9 43 9 23 1 103 5 177 9 74 4 167 8 205 10
39 2 120 6 180 10 61 3 144 8 185 10 103 5 339 17 580 30 123 7 225 12 370 20
58 3 146 7 195 10 50 3 137 7 195 10 58 2 146 7 195 10 105 7 230 13 367 20
97 4 170 22 218 52 68 43 134 138 166 238 16 49 16 176 0 233 -26 97 -96 190
-161 216 -25 10 -51 19 -65 23 -17 5 -188 11 -192 7z"/>
<path d="M6815 4662 c-1 -2 -47 -5 -101 -7 -103 -4 -229 -11 -399 -20 -55 -3
-138 -8 -185 -10 -120 -5 -303 -15 -385 -20 -38 -3 -122 -7 -185 -10 -63 -3
-151 -8 -195 -11 -87 -5 -205 -11 -360 -18 -55 -3 -138 -7 -185 -10 -47 -3
-143 -8 -215 -11 -71 -4 -157 -8 -190 -10 -33 -2 -114 -7 -180 -10 -66 -3
-158 -8 -205 -11 -47 -2 -132 -7 -190 -9 -58 -3 -139 -7 -180 -10 -42 -2 -125
-7 -185 -10 -126 -6 -226 -11 -375 -19 -161 -9 -275 -15 -390 -21 -58 -3 -141
-8 -185 -10 -72 -5 -158 -9 -385 -20 -533 -26 -587 -30 -653 -51 -28 -9 -137
-82 -137 -92 0 -4 -10 -18 -22 -32 -28 -31 -57 -90 -74 -153 -16 -60 -12 -220
6 -242 7 -8 9 -15 6 -15 -4 0 5 -24 21 -52 29 -54 98 -128 121 -128 6 0 12 -4
12 -8 0 -4 21 -14 48 -22 46 -14 125 -15 317 -5 190 9 302 16 365 20 139 8
348 18 417 19 40 1 73 3 73 6 0 3 26 5 58 6 61 0 300 12 415 20 66 4 159 9
372 18 50 2 133 7 185 10 108 7 240 14 385 21 55 2 143 7 195 10 52 3 133 7
180 10 47 2 135 7 195 11 61 3 148 8 195 9 47 2 85 4 85 5 0 0 38 3 85 5 159
7 325 16 395 20 39 2 120 6 180 9 61 3 148 8 195 11 47 2 132 7 190 10 58 3
150 8 205 11 99 5 200 10 365 18 81 4 213 11 382 21 116 7 186 39 261 120 132
142 154 413 43 543 -52 62 -102 93 -171 107 -38 8 -213 14 -220 7z"/>
<path d="M7017 3324 c-3 -3 -244 -16 -526 -28 -58 -3 -143 -7 -190 -10 -47 -3
-142 -8 -211 -12 -69 -3 -159 -8 -200 -10 -41 -2 -118 -6 -170 -8 -52 -3 -135
-7 -185 -10 -93 -6 -270 -15 -410 -22 -144 -7 -251 -12 -570 -30 -55 -3 -138
-7 -185 -9 -112 -5 -263 -13 -380 -20 -219 -12 -320 -17 -400 -21 -133 -6
-256 -12 -365 -18 -106 -6 -270 -15 -395 -21 -130 -7 -302 -16 -380 -20 -202
-11 -330 -17 -381 -19 -30 -2 -60 -6 -67 -9 -6 -4 -13 -3 -17 3 -4 6 -10 8
-15 5 -9 -5 -60 -9 -300 -20 -212 -10 -272 -18 -337 -44 -55 -21 -126 -61
-131 -73 -2 -4 -8 -8 -13 -8 -13 0 -117 -104 -150 -150 -30 -41 -97 -176 -102
-205 -2 -11 -7 -27 -10 -35 -20 -54 -26 -134 -27 -384 -1 -154 -1 -290 0 -301
2 -33 2 -69 0 -80 -2 -12 -2 34 2 -722 2 -457 6 -595 16 -605 6 -6 12 -22 12
-34 0 -22 44 -110 83 -169 24 -34 127 -135 138 -135 4 0 14 -6 21 -13 12 -12
113 -61 130 -63 4 -1 9 -2 11 -3 19 -16 184 -19 417 -8 74 3 135 6 135 7 0 1
38 3 85 5 47 2 135 6 195 10 190 10 266 15 385 20 63 3 144 7 180 10 36 2 117
6 180 9 130 7 279 15 390 21 41 3 129 7 195 9 66 3 152 7 190 10 74 6 258 15
410 22 50 2 122 5 160 8 39 3 124 7 190 11 66 3 165 8 220 11 55 3 133 7 172
8 40 1 75 5 79 8 3 4 16 3 29 -2 13 -5 26 -6 29 -2 4 3 30 7 59 8 56 2 233 11
387 19 106 6 207 12 385 20 66 3 145 8 175 10 45 3 180 9 395 19 17 1 35 5 42
9 6 4 14 3 18 -3 4 -6 10 -8 14 -5 5 2 57 7 117 10 60 3 147 8 194 10 47 3
134 8 195 10 210 10 273 23 371 76 193 106 326 301 350 514 8 71 8 1817 0
1895 -19 187 -125 365 -276 466 -95 63 -171 85 -298 89 -34 0 -64 0 -65 -1z
m-258 -827 c75 -35 138 -116 148 -187 6 -48 -3 -961 -10 -990 -2 -8 -7 -31
-11 -50 -17 -70 -90 -180 -121 -180 -7 0 -18 -6 -24 -13 -23 -29 -98 -37 -461
-52 -47 -2 -85 -4 -85 -5 0 -1 -34 -3 -75 -5 -142 -6 -305 -15 -385 -20 -44
-3 -129 -7 -190 -10 -60 -2 -110 -5 -110 -5 0 -1 -36 -3 -80 -5 -44 -2 -125
-6 -180 -9 -55 -3 -147 -8 -205 -11 -58 -3 -141 -8 -185 -10 -44 -3 -125 -7
-180 -10 -55 -2 -134 -7 -175 -9 -69 -4 -231 -13 -420 -21 -41 -2 -118 -6
-170 -10 -52 -3 -135 -7 -185 -10 -85 -4 -176 -9 -395 -21 -191 -10 -247 -13
-365 -19 -66 -3 -156 -8 -200 -10 -44 -3 -132 -7 -195 -11 -63 -3 -140 -7
-170 -9 -338 -19 -470 -22 -510 -14 -96 19 -168 120 -176 246 -2 36 -6 69 -9
73 -3 5 -1 11 4 14 6 4 6 18 1 35 -4 16 -6 32 -4 34 8 8 9 177 2 177 -4 0 -5
6 -2 13 7 20 11 98 4 102 -3 2 -3 31 0 64 3 34 2 61 -2 61 -4 0 -5 6 -2 13 9
24 10 98 2 103 -5 3 -6 9 -4 13 4 6 7 90 5 131 0 8 1 60 4 116 5 115 24 164
83 212 43 35 127 64 198 67 28 2 101 6 161 9 105 6 173 10 385 21 52 3 138 8
190 10 52 3 140 8 195 10 55 3 139 7 188 10 154 9 249 14 367 19 164 8 313 16
400 21 72 5 179 10 375 20 234 12 287 15 378 20 55 3 103 8 108 11 5 3 9 0 9
-6 0 -6 5 -8 12 -4 12 7 28 9 238 19 124 6 180 9 375 19 55 3 147 8 205 11 58
3 143 8 190 10 47 3 135 7 195 10 61 3 155 7 210 11 55 3 129 7 165 9 36 2
126 6 200 10 74 3 136 8 138 10 10 9 113 -9 151 -28z"/>
</g>
</svg>
