<svg xmlns="http://www.w3.org/2000/svg" viewBox="0 0 190.62 211.02"><g id="Layer_2" data-name="Layer 2"><g id="Layer_1-2" data-name="Layer 1"><path d="M34,0q5.18,0,11.53,4.1A23.85,23.85,0,0,1,50.29,8,97.86,97.86,0,0,1,69,6,34,34,0,0,1,84.57,9.57c3.13,1.76,4.75,3.78,4.88,6q-.2,4.61-9.18,4.79A320.81,320.81,0,0,0,41,25q-16,3.22-25,3.22-7.62-.09-11.72-2C1.69,24.94.39,23.5.39,21.88q0-1.86,2.25-3.42a8,8,0,0,1,4.29-1.08h.88a3.21,3.21,0,0,1,1.47.3q3-.3,20.31-4.59-3.32-3.23-3.32-5.47Q26.27,0,34,0ZM10.55,60.16a10.54,10.54,0,0,1,6.74,2q2.43-.39,9.17-1.56,26.17-5.09,37.31-5.08,10.63,0,16.7,3.61Q85.54,62.7,85.94,68a28.85,28.85,0,0,1-2,9.67,5.48,5.48,0,0,1,1.27,3.71c-.14,3.51-2.54,5.47-7.23,5.86q-16.7.09-36,1.17Q27,89.55,21.19,89.94q-13-.09-13-9.18l-.09-7a9.15,9.15,0,0,0-1.66-5.86,3.86,3.86,0,0,1-1.47-3Q5,60.16,10.55,60.16Zm2.34-26.47h1A2.31,2.31,0,0,1,15,34q3.12-.37,25.58-5.46A108.13,108.13,0,0,1,65.72,25a26.31,26.31,0,0,1,12.6,3q3.9,2.14,4.1,4.78,0,3.42-7.42,3.91a261.82,261.82,0,0,0-33.2,3.71q-13.48,2.45-21.1,2.44a28.49,28.49,0,0,1-10-1.85Q7.42,39.55,7.42,37.5a3.58,3.58,0,0,1,1.86-2.93A7.53,7.53,0,0,1,12.89,33.69Zm0,13.58h1a2.21,2.21,0,0,1,1.17.29q3.23-.3,26-4.79A139.71,139.71,0,0,1,66.5,39.94a27.84,27.84,0,0,1,12.6,2.83q3.81,2.25,4.1,4.89c0,2.28-2.5,3.55-7.52,3.8q-16.79.8-33.49,3A149.21,149.21,0,0,1,20.7,56.64q-6.43-.28-10-2-3.32-1.56-3.32-3.52a3.36,3.36,0,0,1,1.86-2.83A6.46,6.46,0,0,1,12.89,47.27ZM66.21,74.22c.13-.33.26-.68.39-1.08.78-2.53,1.34-4.23,1.66-5.07-.06-1.31-1.17-2-3.32-2a102.94,102.94,0,0,0-18.55,2.25q-18.16,3.42-26.08,4.3c.07.78.1,1.49.1,2.14q0,3.53,4.3,3.81c1.75-.19,5.86-.78,12.3-1.75Q56.84,74.8,66.21,74.22Z"/><path d="M111.13,1.17q3.72,0,8.4,3.91a16.31,16.31,0,0,1,4.79,5.86c.78-.07,1.56-.1,2.34-.1a13,13,0,0,1,7.71,2.34q3.23,2.45,3.52,5.18-.3,3.9-5.37,4.2l-22,5.66q-5.37-.09-8.4-2c-1.7-.91-2.54-1.92-2.54-3a4.14,4.14,0,0,1,1.76-3.41q2.34-2.14,4.2-2.15l1.56.19a27.38,27.38,0,0,0,3.71-1.95l-1.27-1.27Q105.07,10,105.08,7,105.08,1.17,111.13,1.17Zm-8.4,59.47a8.67,8.67,0,0,1,3.91,1h.29l1.57.29c.78-.13,2.31-.45,4.59-1q8.68-2.34,12.59-2.35a11.75,11.75,0,0,1,9.18,4.2q3.33,3.72,3.42,10.75v5.37a9.08,9.08,0,0,1-.19,2,7.35,7.35,0,0,1,1.75,4.2c-.06,2.6-1.4,3.94-4,4q-7.62,0-16.41.78-6.63.5-9.08.49-8.2-1.08-9-8.1c0-.78.06-2.28.19-4.5q.19-3.6.2-7.22A10,10,0,0,0,100.49,66a6.16,6.16,0,0,1-.49-2.15C100,61.72,100.91,60.64,102.73,60.64Zm3.13-26.56,1.17.1c.59-.06,2.28-.88,5.08-2.44a27.13,27.13,0,0,1,13.67-3.81,12.2,12.2,0,0,1,6.74,1.95,6.81,6.81,0,0,1,3,4.5q-.3,3.51-4.59,3.71l-21.29,4.2a13.32,13.32,0,0,1-6.55-1.57c-1.23-.71-1.85-1.53-1.85-2.44a3.15,3.15,0,0,1,1.17-2.54A5.13,5.13,0,0,1,105.86,34.08Zm.39,13.77,1.17.1a27.5,27.5,0,0,0,5.18-2.15,33.48,33.48,0,0,1,14.06-3.12,11.57,11.57,0,0,1,6.64,2,6.93,6.93,0,0,1,3,4.49q-.3,3.62-4.59,3.71l-21.68,3a13.25,13.25,0,0,1-6.54-1.57c-1.31-.71-2-1.49-2-2.34a3.16,3.16,0,0,1,1.27-2.64A5,5,0,0,1,106.25,47.85Zm18.46,30.76a5.31,5.31,0,0,0,.09-1q.2-3.33.3-7.33c-.13-1.69-.85-2.54-2.15-2.54q-1.28,0-9.67,2.54c-.65.2-1.27.36-1.85.49l-.2,7.32c0,1,.65,1.7,2,2a71.65,71.65,0,0,0,7.72-1C122.33,79,123.6,78.81,124.71,78.61ZM144.14,8.2h1a2.93,2.93,0,0,1,1.36.3q1.56-.2,12.89-4.4a36.46,36.46,0,0,1,12.9-2.83,29,29,0,0,1,13.18,3q4,2.25,4,5.08c-.13,2.53-2.7,3.87-7.71,4a94.63,94.63,0,0,0-17.68,3H164A8.3,8.3,0,0,1,165,18.16,9,9,0,0,1,166.8,18q10.83,0,16.7,3.61,5.26,3.62,5.56,8.89,0,4.29-3.22,10.55c2.73,1.56,4.2,3.38,4.39,5.46q-.09,4.2-8.69,4.5a160.78,160.78,0,0,0-18.45,1.85,98.23,98.23,0,0,1-11.53,1.47q-6.84,0-10.74-1.76-3.7-1.86-3.71-4a3.9,3.9,0,0,1,2-3.23,8.11,8.11,0,0,1,4-1h.78a4.08,4.08,0,0,1,1.47.29,28.75,28.75,0,0,0,3.52-1.08,4,4,0,0,1,.19-.48,39.19,39.19,0,0,0,2.44-9,26.67,26.67,0,0,1-3.9,1.08,11,11,0,0,1-6.06-1.47c-1.43-.78-2.15-1.72-2.15-2.83q0-2.05,2.74-4.3a7,7,0,0,1,4.29-1.95l1.37.39a11.65,11.65,0,0,0,3.71-1.37,14.27,14.27,0,0,0-1.07-3.51,10.44,10.44,0,0,1-.59-1.66,25.29,25.29,0,0,1-8.2-2c-2.54-1.1-3.81-2.44-3.81-4,0-1.11.75-2.18,2.25-3.22A7.47,7.47,0,0,1,144.14,8.2Zm-1.95,49.61a14.11,14.11,0,0,1,6.74,1.47,1,1,0,0,1,.48-.1l1.37.49,3-1.17q8.59-3.42,12.3-3.42,11.63,0,18,3.9,5.56,4,5.76,9.38,0,4.59-3.12,10.74,2.73,2,2.73,4c-.19,2.86-2.15,4.32-5.86,4.39A157.05,157.05,0,0,0,164,89.06a65.67,65.67,0,0,1-12.11,1.27q-10.74-.39-10.74-10.54V69.53a11.37,11.37,0,0,0-1.46-5.37,5.67,5.67,0,0,1-1.37-2.93Q138.28,57.81,142.19,57.81Zm27.34,18.46q.19-1.08.39-2.34.78-4.7,1-6.25c-.2-1.31-1.34-2-3.42-2A18.74,18.74,0,0,0,161,67.29q-3.9,1.56-6.54,2.34V76c0,2.4.95,3.61,2.83,3.61,1-.13,2.09-.33,3.32-.59Q166.31,77.16,169.53,76.27Zm-4-38.28a23.62,23.62,0,0,1,4.88-.59c.06-.78.16-1.62.29-2.54.26-2.67.46-4.39.59-5.17-.07-1.24-1.11-1.86-3.13-1.86a5.26,5.26,0,0,0-1.46.2A85.72,85.72,0,0,1,165.53,38Z"/><path d="M35.35,120.39q5,0,11.43,4.88a36.4,36.4,0,0,1,3.9,3.52,84.75,84.75,0,0,1,15.82-1.66,38.06,38.06,0,0,1,17.58,4.1q5.57,3,5.76,6.74-.2,5-10.45,5.47-4.59.19-9.18.58a37.91,37.91,0,0,1,5.86,3.32q11.63,7.82,11.82,15.53-.28,8.59-8.5,8.69c-1.49-.13-3.58-1.82-6.25-5.08C71,164.08,69,161.89,67,159.94q-1,6.34-6.74,15.92A85.45,85.45,0,0,1,75,185q12.3,8.79,12.5,15.53-.1,9.85-8.69,10.05-6.15-.19-13-8A100.87,100.87,0,0,0,50.2,189.14a94,94,0,0,1-11.72,10.55q-12.6,10.74-19.93,10.93a14.1,14.1,0,0,1-10.25-4.1Q3.9,202,3.91,197.83c0-1.82.74-2.73,2.24-2.73a2.41,2.41,0,0,1,1.37.58,10.67,10.67,0,0,0,3.22.88q5-.19,15.14-6.83a83.81,83.81,0,0,0,10.55-8.4,115.48,115.48,0,0,0-18.07-6.74,5.11,5.11,0,0,1-.59.68q-4.39,6.06-8.59,6.06-7.9,0-7.91-8.89a4.92,4.92,0,0,1,1.46-3.61,51.64,51.64,0,0,0,8.5-7.81,6.07,6.07,0,0,0,1.66-3.91,16.62,16.62,0,0,0-1-3.81,9.24,9.24,0,0,1-.39-2.73,23.44,23.44,0,0,1-7.13-1.86Q0,146.57,0,143.83q0-2.15,2.44-3.71a8.88,8.88,0,0,1,4.79-1.27h1a4.81,4.81,0,0,1,1.76.39q2.92,0,21.68-5.37c-2.34-2.61-3.52-4.79-3.52-6.55Q28.12,120.39,35.35,120.39ZM23.83,165.51a110.34,110.34,0,0,1,22.36,4.68q6-8,6.15-11.71a3.66,3.66,0,0,0-.78-2,2.13,2.13,0,0,1-.58-1.37c0-2.21,1.75-3.32,5.27-3.32a18.19,18.19,0,0,1,2,.1,58.23,58.23,0,0,0-8-5.57l-8.7,1.56q-10.44,2-17.87,2.64a16.62,16.62,0,0,1,2.64,7.32A20.74,20.74,0,0,1,23.83,165.51Z"/><path d="M105.66,144.41l1.66.2a9.36,9.36,0,0,0,2.25-1.66c.78-.65,1.5-1.21,2.15-1.66v-1.76q-.1-7.12-4-11.23c-1.3-1.63-1.95-3-1.95-4q0-3.14,5.18-3.13a15,15,0,0,1,9.08,3.22,11,11,0,0,1,4.59,8.3v4.4a11.73,11.73,0,0,1,4.39,2,14.88,14.88,0,0,1,1.47,1.27,11.29,11.29,0,0,1-.78-4.39,2.19,2.19,0,0,1,1-1.67,2.76,2.76,0,0,1,1.66-.87h1c1.3,0,3.78-1,7.42-3.13q4.59-2.73,4.59-4.69c0-2.4.2-3.9.59-4.49a4.3,4.3,0,0,1,3-1.17q2.15,0,5,2.44A14.64,14.64,0,0,1,156,125q8.88-4.2,16.31-4.2,7,0,10.54,2.74a5.91,5.91,0,0,1,2.74,5q0,4.2-6.84,10.05a12.45,12.45,0,0,1,5.57,3.72q3.51,3.79,3.61,11V167q0,5.17-2.44,7.72A10,10,0,0,1,182,177a13.6,13.6,0,0,1,4.88,2.15q3.42,2.73,3.71,5.76,0,4.31-5.85,4.59l-9.58.78c.79.33,1.5.65,2.15,1q12.12,5.57,12.11,11.91-.28,7.81-6.64,7.82-3.9-.11-7.71-4A180.36,180.36,0,0,0,160,193.93a34.56,34.56,0,0,1-4.2,6.25Q146.88,211,138.28,211a13.62,13.62,0,0,1-8.69-2.93q-3-2.94-3-4.89a2.5,2.5,0,0,1,2.83-2.83h3.32q5.17-.19,10.84-5.66c.52-.59,1-1.18,1.47-1.76l-6.54.58a12.26,12.26,0,0,1-7-1.75c-1.43-.78-2.14-1.63-2.14-2.54a3.43,3.43,0,0,1,1.46-2.93,6,6,0,0,1,3.61-1.76l1.37.2q1.95-.39,11.53-3.32a17.4,17.4,0,0,1,2.63-.79v-.58a7.54,7.54,0,0,0-1-2.74,4.27,4.27,0,0,1-.49-1.95v-.68a4.26,4.26,0,0,1-2,.78,9.13,9.13,0,0,1-5-1.37l-.09,2.15c0,3.58-1.57,5.4-4.69,5.47q-4.31-.19-4.3-4.88l.2-15.34q-.88,6.45-8,12.8v25.29q-.39,10.93-6.25,11-4-.09-11.52-13.18Q98.53,182.31,98.53,180a1.76,1.76,0,0,1,.1-.68,3.94,3.94,0,0,1-.58-2.05q0-2.25,3-3.42,5.37-2.06,10.65-4.69V153.59c-2.93.65-5,1-6.25,1.18-4.17,0-6.25-1.44-6.25-4.3Q99.22,145.69,105.66,144.41Zm6.06,38.19a17.63,17.63,0,0,1-5.86,1.07,9.07,9.07,0,0,1-4-1.27q6.25,9.48,7.92,9.47c1.23-.25,1.88-1.13,2-2.63Zm21-24.12v-3.71q-.19-4.31-1.66-6.25a5.26,5.26,0,0,1-.58-.88,11.47,11.47,0,0,1-5.57,2.54.4.4,0,0,0-.29.09v10.94a33.42,33.42,0,0,0,3.51-2.54,5.77,5.77,0,0,1,3.13-1.56C132,157.11,132.52,157.56,132.71,158.48Zm4.3-13.29h.2l1.56.3a61.74,61.74,0,0,0,9.86-2.15q9-2.64,15.53-3.91a33.61,33.61,0,0,0,2.54-2.83q3.23-3.71,3.22-5.27c-.06-1.82-.91-2.74-2.54-2.74q-3.62,0-12.4,4.79a27.36,27.36,0,0,1-4.79,2.83c-.32.33-.68.65-1.07,1q-7.91,7.13-11.43,7.42-3.9,0-5.85-2.05c.06.33.13.65.19,1a4.09,4.09,0,0,1-.1.88,4,4,0,0,1,1.27-.19A7.82,7.82,0,0,1,137,145.19Zm4.59,22.66a9.21,9.21,0,0,0,3-3.12,18.52,18.52,0,0,0,2.54-8.6,12,12,0,0,0-.78-2.63c-1.7.39-3.29.68-4.79.87.07.79.1,1.6.1,2.45Zm9.47,3.71h.59c2.15,0,4.65,1.34,7.52,4a13.92,13.92,0,0,1,2.15,2.44,99.5,99.5,0,0,1,15.33-1.37,5.45,5.45,0,0,1-2.73-4.2q-7.73-.09-11.43-3.51a12.53,12.53,0,0,1-3.52-9.09V157.5c0-.78,0-1.89-.09-3.32a14.06,14.06,0,0,0-.79-4c-1.56.45-3.32,1-5.27,1.66a.3.3,0,0,0,.2.09,9.6,9.6,0,0,1,2.73,5.67,28.41,28.41,0,0,1-2.93,10.93A14.47,14.47,0,0,1,151.07,171.56Zm17.19-24a12,12,0,0,1,.88,4.78,10.24,10.24,0,0,0-.29,2.54v4.69a3,3,0,0,0,3,3.42,4,4,0,0,0,2.15-.78v-.1q.19-5.76.3-12.89c-.2-1.63-.92-2.44-2.15-2.44A17.87,17.87,0,0,0,168.26,147.54Z"/></g></g></svg>