<svg xmlns="http://www.w3.org/2000/svg" viewBox="0 0 408.35 432.59"><defs><style>.cls-1{fill:#8c7ae6;}</style></defs><g id="Layer_2" data-name="Layer 2"><g id="Layer_1-2" data-name="Layer 1"><path class="cls-1" d="M391,61c24.5-1.5,22,38-.5,39L18,119.54c-25.5,1.5-22.5-38,.5-39ZM62,432.54c-15.5,1-30-12.5-29.5-30V316c0-18,13-34,29.5-35l278.5-14.5c16.5-1,30,14,30,32V385c0,17.5-14.5,32.5-30,33ZM339,0c26-1.5,21,38,0,39L62.46,53.54C37,55,39,16,62.46,14.54Zm-6.5,130c24-1,22.5,37.5,0,38.5L65,182.54c-25,1.5-23.5-37,0-38.5Zm1,69.5c26-1,21.5,38,0,39l-266,14c-24,1.5-24-37.5,0-39ZM82,319c-8.5,1.5-12.5,5-12.5,14.5v45c0,8.5,4.5,15,13,14.5l237-12.5c8.5-1.5,12-7,13-15.5l.5-45a13.25,13.25,0,0,0-14-13.5Z"/></g></g></svg>